<svg xmlns="http://www.w3.org/2000/svg" xmlns:xlink="http://www.w3.org/1999/xlink" viewBox="0 0 1118.76 860.03"><defs><style>.cls-1,.cls-4{fill:none;}.cls-2{fill:#c2c2c2;}.cls-3{fill:#fff;}.cls-4{stroke:#001c7f;stroke-miterlimit:10;stroke-width:30px;}.cls-5{fill:#3f75f5;}.cls-6{clip-path:url(#clip-path);}.cls-7{opacity:0.4;}.cls-8{clip-path:url(#clip-path-2);}.cls-9{fill:#3f9bf5;}.cls-10{fill:#89b8f5;}</style><clipPath id="clip-path"><path class="cls-1" d="M52.64,662.37A264.93,264.93,0,0,1,96.36,518.05C142,448,208.49,404.89,284.85,375.27c72.66-28.19,148.52-40.46,226-44.16,4.81-.23,9.64-.2,14.44-.55,20-1.47,28.73-13.5,27.33-33.6-3.18-45.39-5.78-90.83-7.51-136.3-.48-12.8,2.85-25.75,4.77-41.47,7.89,4.17,13.25,6.64,18.24,9.7,59.29,36.35,112.66,80.55,163.49,127.51,42.72,39.47,83.62,81.07,123.26,123.65,20.37,21.88,18.92,17.67,2.2,41.94-49.85,72.4-108.63,137.48-170,200.06-35.51,36.22-74,69.53-111.24,104-3.4,3.14-7.57,5.45-13.72,9.81-1.43-10.84-3.62-19.29-3.48-27.7,1-57.77,1.9-115.56,4-173.29,1-26.83-7.19-37.32-34.2-37.09-137.82,1.19-269,29-388.11,101.05C109.91,617.28,82.42,640.62,52.64,662.37Z"/></clipPath><clipPath id="clip-path-2"><path class="cls-1" d="M69.17,650a9.7,9.7,0,0,1-15.54-8.51c3.74-44.1,18-85.44,42.73-123.46C142,448,208.49,404.89,284.85,375.27c72.66-28.19,148.52-40.46,226-44.16,4.81-.23,9.64-.2,14.44-.55,20-1.47,28.73-13.5,27.33-33.6-3.18-45.39-5.78-90.83-7.51-136.3-.34-9,1.2-18.07,2.82-28.12a9.73,9.73,0,0,1,14.13-7.06c2.16,1.14,4.14,2.23,6.06,3.41,59.29,36.35,112.66,80.55,163.49,127.51,42.72,39.47,83.62,81.07,123.26,123.65,20.37,21.88,18.92,17.67,2.2,41.94-49.85,72.4-108.63,137.48-170,200.06-35.51,36.22-74,69.53-111.24,104l-.11.09a9.7,9.7,0,0,1-16.06-5.8,71.71,71.71,0,0,1-1-12.18c1-57.77,1.9-115.56,4-173.29,1-26.83-7.19-37.32-34.2-37.09-137.82,1.19-269,29-388.11,101.05C115.62,613.83,92.83,632.05,69.17,650Z"/></clipPath></defs><title>Next Hover</title><g id="Layer_2" data-name="Layer 2"><g id="Layer_1-2" data-name="Layer 1"><g id="hover"><path id="overallshadow" class="cls-2" d="M495.78,298c-1.37-35.52-4.1-69.21-3.47-102.84.44-23.43,3-47.42,9.07-70C511.18,88.4,540,75,573.47,92.45c29.72,15.5,58.16,34.23,84.92,54.49,81.16,61.46,157.42,128.57,225.54,204.49,10.2,11.36,19.16,23.92,28,36.4,13.81,19.45,15.38,40.26,2,60.24-18.21,27.28-36.27,54.87-56.92,80.28C784.33,617.89,707,703.24,618.77,778a267.63,267.63,0,0,1-31.86,23.15c-38.07,23.6-64.33,12.87-74.74-30.88-3.43-14.41-6-29.41-6.09-44.15-.26-46.4.83-92.81,1.44-139.22.07-5.18.47-10.35.81-17.56-11.87.6-22.61.93-33.32,1.71-112.18,8.15-218.56,35.63-314.86,95.77C118.47,692.84,82,724.54,56,767.07c-6.53,10.68-16,16.22-28.83,13.4-13.39-3-19-12.58-21.2-25.36C-16.11,623.9,23.15,514.41,124,428c76.36-65.48,167.69-98.71,265.21-116.48,31-5.64,62.51-8.18,93.8-12.11C487.22,298.84,491.49,298.43,495.78,298ZM52.64,681.41c29.78-21.75,57.27-45.09,87.73-63.5,119.14-72,250.29-99.86,388.11-101,27-.23,35.2,10.26,34.2,37.09-2.13,57.74-3,115.52-4,173.29-.14,8.41,2.05,16.86,3.48,27.7,6.15-4.35,10.32-6.67,13.72-9.81,37.25-34.51,75.73-67.82,111.24-104,61.36-62.58,120.14-127.66,170-200.06,16.72-24.27,18.17-20.06-2.2-41.94-39.64-42.58-80.54-84.18-123.26-123.65-50.83-47-104.2-91.16-163.49-127.51-5-3.06-10.35-5.53-18.24-9.7C548,154,544.64,166.9,545.12,179.7c1.73,45.47,4.33,90.91,7.51,136.3,1.4,20.1-7.35,32.14-27.33,33.6-4.8.35-9.63.32-14.44.55-77.49,3.7-153.35,16-226,44.16C208.49,423.93,142,467,96.36,537.09A265,265,0,0,0,52.64,681.41Z"/><path class="cls-3" d="M486.76,282.41a9.74,9.74,0,0,0,8.64-10.1c-1.43-32.2-3.67-63-3.09-93.72.44-23.43,3-47.42,9.07-70,9.8-36.72,38.57-50.15,72.09-32.67,29.72,15.5,58.16,34.23,84.92,54.49C739.55,191.88,815.81,259,883.93,334.91c10.2,11.36,19.16,23.92,28,36.4,13.81,19.45,15.38,40.26,2,60.24-18.21,27.28-36.27,54.87-56.92,80.28-72.74,89.54-150,174.89-238.3,249.65a267.63,267.63,0,0,1-31.86,23.15c-38.07,23.6-64.33,12.87-74.74-30.88-3.43-14.41-6-29.41-6.09-44.15-.26-46.4.83-92.81,1.44-139.22,0-2.23.12-4.46.25-6.86a9.72,9.72,0,0,0-10.14-10.2c-7.79.35-15.21.67-22.62,1.21-112.18,8.15-218.56,35.63-314.86,95.77C118.47,676.32,82,708,56,750.55c-6.53,10.68-16,16.22-28.83,13.39-13.39-3-19-12.58-21.2-25.35-22.06-131.21,17.2-240.7,118-327.14C200.32,346,291.65,312.74,389.17,295c31-5.65,62.51-8.18,93.8-12.11C484.23,282.7,485.5,282.55,486.76,282.41ZM53.63,644a9.7,9.7,0,0,0,15.54,8.51c23.66-18,46.45-36.19,71.2-51.15,119.14-72,250.29-99.86,388.11-101.05,27-.23,35.2,10.26,34.2,37.09-2.13,57.73-3,115.52-4,173.29a71.71,71.71,0,0,0,1,12.18,9.7,9.7,0,0,0,16.06,5.8l.11-.09c37.25-34.51,75.73-67.82,111.24-104,61.36-62.58,120.14-127.66,170-200.06,16.72-24.27,18.17-20.06-2.2-41.94C815.24,340,774.34,298.39,731.62,258.92c-50.83-47-104.2-91.16-163.49-127.51-1.92-1.18-3.9-2.27-6.06-3.41a9.73,9.73,0,0,0-14.13,7.06c-1.62,10.05-3.16,19.12-2.82,28.12,1.73,45.47,4.33,90.91,7.51,136.3,1.4,20.1-7.35,32.14-27.33,33.6-4.8.35-9.63.32-14.44.55-77.49,3.7-153.35,16-226,44.16C208.49,407.41,142,450.49,96.36,520.57,71.59,558.59,57.37,599.93,53.63,644Z"/><path id="stroke" class="cls-4" d="M69.17,650a9.7,9.7,0,0,1-15.54-8.51c3.74-44.1,18-85.44,42.73-123.46C142,448,208.49,404.89,284.85,375.27c72.66-28.19,148.52-40.46,226-44.16,4.81-.23,9.64-.2,14.44-.55,20-1.47,28.73-13.5,27.33-33.6-3.18-45.39-5.78-90.83-7.51-136.3-.34-9,1.2-18.07,2.82-28.12a9.73,9.73,0,0,1,14.13-7.06c2.16,1.14,4.14,2.23,6.06,3.41,59.29,36.35,112.66,80.55,163.49,127.51,42.72,39.47,83.62,81.07,123.26,123.65,20.37,21.88,18.92,17.67,2.2,41.94-49.85,72.4-108.63,137.48-170,200.06-35.51,36.22-74,69.53-111.24,104l-.11.09a9.7,9.7,0,0,1-16.06-5.8,71.71,71.71,0,0,1-1-12.18c1-57.77,1.9-115.56,4-173.29,1-26.83-7.19-37.32-34.2-37.09-137.82,1.19-269,29-388.11,101.05C115.62,613.83,92.83,632.05,69.17,650Z"/><path class="cls-5" d="M69.17,650a9.7,9.7,0,0,1-15.54-8.51c3.74-44.1,18-85.44,42.73-123.46C142,448,208.49,404.89,284.85,375.27c72.66-28.19,148.52-40.46,226-44.16,4.81-.23,9.64-.2,14.44-.55,20-1.47,28.73-13.5,27.33-33.6-3.18-45.39-5.78-90.83-7.51-136.3-.34-9,1.2-18.07,2.82-28.12a9.73,9.73,0,0,1,14.13-7.06c2.16,1.14,4.14,2.23,6.06,3.41,59.29,36.35,112.66,80.55,163.49,127.51,42.72,39.47,83.62,81.07,123.26,123.65,20.37,21.88,18.92,17.67,2.2,41.94-49.85,72.4-108.63,137.48-170,200.06-35.51,36.22-74,69.53-111.24,104l-.11.09a9.7,9.7,0,0,1-16.06-5.8,71.71,71.71,0,0,1-1-12.18c1-57.77,1.9-115.56,4-173.29,1-26.83-7.19-37.32-34.2-37.09-137.82,1.19-269,29-388.11,101.05C115.62,613.83,92.83,632.05,69.17,650Z"/><g class="cls-6"><path class="cls-7" d="M521.7,628.59S776.82,547.05,882,381.36C1038.81,461.2,616.39,860,616.39,860S477,702.23,521.7,628.59Z"/></g><g class="cls-8"><path class="cls-9" d="M37.77,689.08s81.53-389.25,886.34-313C1545.77,435,479.62,0,479.62,0S-138.44,465.52,37.77,689.08Z"/></g><path class="cls-10" d="M242.92,452.37s-23.67-86.79,165.69-60.49C408.61,391.88,292.89,426.07,242.92,452.37Z"/></g></g></g></svg>