<svg xmlns="http://www.w3.org/2000/svg" xmlns:xlink="http://www.w3.org/1999/xlink" viewBox="0 0 1118.76 860.03"><defs><style>.cls-1,.cls-4{fill:none;}.cls-2{fill:#c2c2c2;}.cls-3{fill:#fff;}.cls-4{stroke:#001c7f;stroke-miterlimit:10;stroke-width:30px;}.cls-5{fill:#3f75f5;}.cls-6{clip-path:url(#clip-path);}.cls-7{opacity:0.4;}.cls-8{clip-path:url(#clip-path-2);}.cls-9{fill:#3f9bf5;}.cls-10{fill:#89b8f5;}</style><clipPath id="clip-path"><path class="cls-1" d="M1066.12,662.37a264.93,264.93,0,0,0-43.72-144.32C976.74,448,910.27,404.89,833.91,375.27c-72.65-28.19-148.52-40.46-226-44.16-4.82-.23-9.65-.2-14.45-.55-20-1.47-28.73-13.5-27.32-33.6,3.17-45.39,5.77-90.83,7.5-136.3.49-12.8-2.84-25.75-4.77-41.47-7.88,4.17-13.24,6.64-18.24,9.7C491.35,165.24,438,209.44,387.14,256.4c-42.72,39.47-83.62,81.07-123.26,123.65-20.36,21.88-18.91,17.67-2.2,41.94,49.85,72.4,108.64,137.48,170,200.06,35.51,36.22,74,69.53,111.25,104,3.39,3.14,7.57,5.45,13.72,9.81,1.43-10.84,3.62-19.29,3.48-27.7-1-57.77-1.9-115.56-4-173.29-1-26.83,7.19-37.32,34.21-37.09,137.81,1.19,269,29,388.1,101.05C1008.85,617.28,1036.34,640.62,1066.12,662.37Z"/></clipPath><clipPath id="clip-path-2"><path class="cls-1" d="M1049.59,650a9.71,9.71,0,0,0,15.55-8.51c-3.74-44.1-18-85.44-42.74-123.46C976.74,448,910.27,404.89,833.91,375.27c-72.65-28.19-148.52-40.46-226-44.16-4.82-.23-9.65-.2-14.45-.55-20-1.47-28.73-13.5-27.32-33.6,3.17-45.39,5.77-90.83,7.5-136.3.34-9-1.2-18.07-2.82-28.12a9.72,9.72,0,0,0-14.13-7.06c-2.15,1.14-4.13,2.23-6.06,3.41C491.35,165.24,438,209.44,387.14,256.4c-42.72,39.47-83.62,81.07-123.26,123.65-20.36,21.88-18.91,17.67-2.2,41.94,49.85,72.4,108.64,137.48,170,200.06,35.51,36.22,74,69.53,111.25,104l.1.09a9.7,9.7,0,0,0,16.06-5.8,72.79,72.79,0,0,0,1-12.18c-1-57.77-1.9-115.56-4-173.29-1-26.83,7.19-37.32,34.21-37.09,137.81,1.19,269,29,388.1,101.05C1003.14,613.83,1025.94,632.05,1049.59,650Z"/></clipPath></defs><title>Previous Hover</title><g id="Layer_2" data-name="Layer 2"><g id="Layer_1-2" data-name="Layer 1"><g id="hover_prev" data-name="hover prev"><path id="overallshadow" class="cls-2" d="M635.8,299.38c31.28,3.93,62.82,6.47,93.79,12.11,97.52,17.77,188.86,51,265.22,116.48,100.8,86.44,140.06,195.93,118,327.14-2.14,12.78-7.81,22.4-21.19,25.36-12.82,2.82-22.31-2.72-28.84-13.4-26-42.53-62.49-74.23-104.16-100.25-96.3-60.14-202.69-87.62-314.87-95.77-10.71-.78-21.45-1.11-33.32-1.71.34,7.21.74,12.38.81,17.56.62,46.41,1.71,92.82,1.44,139.22-.08,14.74-2.65,29.74-6.08,44.15-10.42,43.75-36.68,54.48-74.74,30.88A266.93,266.93,0,0,1,500,778c-88.26-74.76-165.56-160.11-238.3-249.65-20.64-25.41-38.71-53-56.92-80.28-13.34-20-11.77-40.79,2-60.24,8.86-12.48,17.81-25,28-36.4,68.12-75.92,144.39-143,225.55-204.49,26.76-20.26,55.2-39,84.92-54.49,33.51-17.48,62.28-4,72.09,32.67,6,22.57,8.62,46.56,9.06,70,.64,33.63-2.1,67.32-3.47,102.84C627.28,298.43,631.54,298.84,635.8,299.38Zm386.6,237.71C976.74,467,910.27,423.93,833.91,394.31c-72.65-28.19-148.52-40.46-226-44.16-4.82-.23-9.65-.2-14.45-.55-20-1.46-28.73-13.5-27.32-33.6,3.17-45.39,5.77-90.83,7.5-136.3.49-12.8-2.84-25.75-4.77-41.47-7.88,4.17-13.24,6.64-18.24,9.7C491.35,184.28,438,228.48,387.14,275.44c-42.72,39.47-83.62,81.07-123.26,123.65C243.52,421,245,416.76,261.68,441c49.85,72.4,108.64,137.48,170,200.06,35.51,36.22,74,69.53,111.25,104,3.39,3.14,7.57,5.46,13.72,9.81,1.43-10.84,3.62-19.29,3.48-27.7-1-57.77-1.9-115.55-4-173.29-1-26.83,7.19-37.32,34.21-37.09,137.81,1.19,269,29,388.1,101,30.46,18.41,57.95,41.75,87.73,63.5A265,265,0,0,0,1022.4,537.09Z"/><path class="cls-3" d="M635.8,282.86c31.28,3.93,62.82,6.46,93.79,12.11,97.52,17.77,188.86,51,265.22,116.48,100.8,86.44,140.06,195.93,118,327.14-2.14,12.77-7.81,22.4-21.19,25.35-12.82,2.83-22.31-2.71-28.84-13.39-26-42.53-62.49-74.23-104.16-100.25-96.3-60.14-202.69-87.62-314.87-95.77-7.4-.54-14.82-.86-22.62-1.21A9.71,9.71,0,0,0,611,563.52c.12,2.4.21,4.63.24,6.86.62,46.41,1.71,92.82,1.44,139.22-.08,14.74-2.65,29.74-6.08,44.15-10.42,43.75-36.68,54.48-74.74,30.88A266.93,266.93,0,0,1,500,761.48c-88.26-74.76-165.56-160.11-238.3-249.65-20.64-25.41-38.71-53-56.92-80.28-13.34-20-11.77-40.79,2-60.24,8.86-12.48,17.81-25,28-36.4C303,259,379.22,191.88,460.38,130.42c26.76-20.26,55.2-39,84.92-54.49,33.51-17.48,62.28-4.05,72.09,32.67,6,22.57,8.62,46.56,9.06,70,.58,30.74-1.65,61.52-3.09,93.72a9.74,9.74,0,0,0,8.64,10.1C633.27,282.55,634.53,282.7,635.8,282.86Zm386.6,237.71c-45.66-70.08-112.13-113.16-188.49-142.78-72.65-28.19-148.52-40.46-226-44.16-4.82-.23-9.65-.2-14.45-.55-20-1.46-28.73-13.5-27.32-33.6,3.17-45.39,5.77-90.83,7.5-136.3.34-9-1.2-18.07-2.82-28.12A9.72,9.72,0,0,0,556.69,128c-2.15,1.14-4.13,2.23-6.06,3.41C491.35,167.76,438,212,387.14,258.92,344.42,298.39,303.52,340,263.88,382.57c-20.36,21.88-18.91,17.67-2.2,41.94,49.85,72.4,108.64,137.48,170,200.06,35.51,36.22,74,69.53,111.25,104l.1.09a9.7,9.7,0,0,0,16.06-5.8,72.79,72.79,0,0,0,1-12.18c-1-57.77-1.9-115.56-4-173.29-1-26.83,7.19-37.32,34.21-37.09,137.81,1.19,269,29,388.1,101.05,24.75,15,47.55,33.18,71.2,51.15a9.71,9.71,0,0,0,15.55-8.51C1061.4,599.93,1047.17,558.59,1022.4,520.57Z"/><path id="stroke" class="cls-4" d="M1049.59,650a9.71,9.71,0,0,0,15.55-8.51c-3.74-44.1-18-85.44-42.74-123.46C976.74,448,910.27,404.89,833.91,375.27c-72.65-28.19-148.52-40.46-226-44.16-4.82-.23-9.65-.2-14.45-.55-20-1.47-28.73-13.5-27.32-33.6,3.17-45.39,5.77-90.83,7.5-136.3.34-9-1.2-18.07-2.82-28.12a9.72,9.72,0,0,0-14.13-7.06c-2.15,1.14-4.13,2.23-6.06,3.41C491.35,165.24,438,209.44,387.14,256.4c-42.72,39.47-83.62,81.07-123.26,123.65-20.36,21.88-18.91,17.67-2.2,41.94,49.85,72.4,108.64,137.48,170,200.06,35.51,36.22,74,69.53,111.25,104l.1.09a9.7,9.7,0,0,0,16.06-5.8,72.79,72.79,0,0,0,1-12.18c-1-57.77-1.9-115.56-4-173.29-1-26.83,7.19-37.32,34.21-37.09,137.81,1.19,269,29,388.1,101.05C1003.14,613.83,1025.94,632.05,1049.59,650Z"/><path class="cls-5" d="M1049.59,650a9.71,9.71,0,0,0,15.55-8.51c-3.74-44.1-18-85.44-42.74-123.46C976.74,448,910.27,404.89,833.91,375.27c-72.65-28.19-148.52-40.46-226-44.16-4.82-.23-9.65-.2-14.45-.55-20-1.47-28.73-13.5-27.32-33.6,3.17-45.39,5.77-90.83,7.5-136.3.34-9-1.2-18.07-2.82-28.12a9.72,9.72,0,0,0-14.13-7.06c-2.15,1.14-4.13,2.23-6.06,3.41C491.35,165.24,438,209.44,387.14,256.4c-42.72,39.47-83.62,81.07-123.26,123.65-20.36,21.88-18.91,17.67-2.2,41.94,49.85,72.4,108.64,137.48,170,200.06,35.51,36.22,74,69.53,111.25,104l.1.09a9.7,9.7,0,0,0,16.06-5.8,72.79,72.79,0,0,0,1-12.18c-1-57.77-1.9-115.56-4-173.29-1-26.83,7.19-37.32,34.21-37.09,137.81,1.19,269,29,388.1,101.05C1003.14,613.83,1025.94,632.05,1049.59,650Z"/><g class="cls-6"><path class="cls-7" d="M597.06,628.59S341.94,547.05,236.74,381.36C80,461.2,502.38,860,502.38,860S641.77,702.23,597.06,628.59Z"/></g><g class="cls-8"><path class="cls-9" d="M1081,689.08s-81.53-389.25-886.33-313C-427,435,639.14,0,639.14,0S1257.21,465.52,1081,689.08Z"/></g><path class="cls-10" d="M875.85,452.37s23.67-86.79-165.7-60.49C710.15,391.88,825.88,426.07,875.85,452.37Z"/></g></g></g></svg>